  0
SECTION
  2
HEADER
  9
$ACADVER
  1
AC1009
  9
$INSBASE
 10
0.0
 20
0.0
 30
0.0
  9
$EXTMIN
 10
0.0
 20
0.0
 30
0.0
  9
$EXTMAX
 10
0.0
 20
0.0
 30
0.0
  0
ENDSEC
  0
SECTION
  2
TABLES
  0
TABLE
  2
VPORT
 70
0
  0
ENDTAB
  0
TABLE
  2
LTYPE
 70
1
  0
LTYPE
  2
CONTINUOUS
 70
0
  3
Solid line
 72
65
 73
0
 40
0.0
  0
ENDTAB
  0
TABLE
  2
LAYER
 70
1
  0
LAYER
  2
0
 70
64
 62
7
  6
continuous
  0
ENDTAB
  0
TABLE
  2
STYLE
 70
1
  0
STYLE
  2
STANDARD
 70
0
 40
0
 41
1.0
 50
0.0
 71
0
 42
1
 3
ARIAL.TTF
 4

  0
ENDTAB
  0
TABLE
  2
VIEW
 70
0
  0
ENDTAB
  0
ENDSEC
  0
SECTION
  2
BLOCKS
  0
BLOCK
  8
0
  2
FUSION036
 70
0
 10
0.0
 20
0.0
 30
0.0
  3
FUSION036
  0
LINE
  8
0
 62
0
 10
-1060.0
 20
0.0
 30
0.0
 11
-1060.0
 21
346.0
 31
0.0
  0
LINE
  8
0
 62
0
 10
-1050.0
 20
326.0
 30
0.0
 11
-1050.0
 21
346.0
 31
0.0
  0
LINE
  8
0
 62
0
 10
-1050.0
 20
0.0
 30
0.0
 11
-1050.0
 21
346.0
 31
0.0
  0
LINE
  8
0
 62
0
 10
-1050.0
 20
153.0
 30
0.0
 11
-1050.0
 21
248.0
 31
0.0
  0
LINE
  8
0
 62
0
 10
-1050.0
 20
98.0
 30
0.0
 11
-1050.0
 21
153.0
 31
0.0
  0
LINE
  8
0
 62
0
 10
-1050.0
 20
248.0
 30
0.0
 11
-1050.0
 21
268.0
 31
0.0
  0
LINE
  8
0
 62
0
 10
-1050.0
 20
78.0
 30
0.0
 11
-1050.0
 21
98.0
 31
0.0
  0
LINE
  8
0
 62
0
 10
-1060.0
 20
0.0
 30
0.0
 11
-1050.0
 21
0.0
 31
0.0
  0
LINE
  8
0
 62
0
 10
-1060.0
 20
346.0
 30
0.0
 11
-1060.0
 21
804.0
 31
0.0
  0
LINE
  8
0
 62
0
 10
-1060.0
 20
346.0
 30
0.0
 11
-1050.0
 21
346.0
 31
0.0
  0
LINE
  8
0
 62
0
 10
-1050.0
 20
366.0
 30
0.0
 11
-1050.0
 21
516.0
 31
0.0
  0
LINE
  8
0
 62
0
 10
-1050.0
 20
536.0
 30
0.0
 11
-1050.0
 21
516.0
 31
0.0
  0
LINE
  8
0
 62
0
 10
-1050.0
 20
634.0
 30
0.0
 11
-1050.0
 21
784.0
 31
0.0
  0
LINE
  8
0
 62
0
 10
-1050.0
 20
346.0
 30
0.0
 11
-1050.0
 21
366.0
 31
0.0
  0
LINE
  8
0
 62
0
 10
-1050.0
 20
614.0
 30
0.0
 11
-1050.0
 21
634.0
 31
0.0
  0
LINE
  8
0
 62
0
 10
-1050.0
 20
346.0
 30
0.0
 11
-1050.0
 21
804.0
 31
0.0
  0
LINE
  8
0
 62
0
 10
-1050.0
 20
804.0
 30
0.0
 11
-1050.0
 21
784.0
 31
0.0
  0
LINE
  8
0
 62
0
 10
-1060.0
 20
1150.0
 30
0.0
 11
-1060.0
 21
804.0
 31
0.0
  0
LINE
  8
0
 62
0
 10
-1060.0
 20
804.0
 30
0.0
 11
-1050.0
 21
804.0
 31
0.0
  0
LINE
  8
0
 62
0
 10
-1050.0
 20
824.0
 30
0.0
 11
-1050.0
 21
804.0
 31
0.0
  0
LINE
  8
0
 62
0
 10
-1050.0
 20
1150.0
 30
0.0
 11
-1050.0
 21
804.0
 31
0.0
  0
LINE
  8
0
 62
0
 10
-1050.0
 20
997.0
 30
0.0
 11
-1050.0
 21
902.0
 31
0.0
  0
LINE
  8
0
 62
0
 10
-1050.0
 20
1052.0
 30
0.0
 11
-1050.0
 21
997.0
 31
0.0
  0
LINE
  8
0
 62
0
 10
-1050.0
 20
902.0
 30
0.0
 11
-1050.0
 21
882.0
 31
0.0
  0
LINE
  8
0
 62
0
 10
-1050.0
 20
1072.0
 30
0.0
 11
-1050.0
 21
1052.0
 31
0.0
  0
LINE
  8
0
 62
0
 10
-1060.0
 20
1150.0
 30
0.0
 11
-1050.0
 21
1150.0
 31
0.0
  0
ENDBLK
  0
BLOCK
  8
0
  2
BOX051
 70
0
 10
0.0
 20
0.0
 30
0.0
  3
BOX051
  0
LINE
  8
0
 62
0
 10
80.0
 20
0.0
 30
0.0
 11
80.0
 21
1150.0
 31
0.0
  0
LINE
  8
0
 62
0
 10
100.0
 20
0.0
 30
0.0
 11
100.0
 21
1150.0
 31
0.0
  0
LINE
  8
0
 62
0
 10
80.0
 20
0.0
 30
0.0
 11
100.0
 21
0.0
 31
0.0
  0
LINE
  8
0
 62
0
 10
80.0
 20
1150.0
 30
0.0
 11
100.0
 21
1150.0
 31
0.0
  0
ENDBLK
  0
BLOCK
  8
0
  2
CUT027
 70
0
 10
0.0
 20
0.0
 30
0.0
  3
CUT027
  0
LINE
  8
0
 62
0
 10
-560.0
 20
0.0
 30
0.0
 11
-560.0
 21
1150.0
 31
0.0
  0
LINE
  8
0
 62
0
 10
-560.0
 20
0.0
 30
0.0
 11
80.0
 21
0.0
 31
0.0
  0
LINE
  8
0
 62
0
 10
-560.0
 20
1150.0
 30
0.0
 11
80.0
 21
1150.0
 31
0.0
  0
LINE
  8
0
 62
0
 10
80.0
 20
0.0
 30
0.0
 11
80.0
 21
1150.0
 31
0.0
  0
LINE
  8
0
 62
0
 10
-50.0
 20
120.0
 30
0.0
 11
-50.0
 21
530.0
 31
0.0
  0
ARC
  8
0
 62
0
 10
-27.0
 20
530.0
 30
0.0
 40
23.0
 50
-0.0
 51
180.0
  0
ARC
  8
0
 62
0
 10
-27.0
 20
120.0
 30
0.0
 40
23.0
 50
180.0
 51
0.0
  0
LINE
  8
0
 62
0
 10
-4.0
 20
120.0
 30
0.0
 11
-4.0
 21
530.0
 31
0.0
  0
LINE
  8
0
 62
0
 10
-4.0
 20
640.0
 30
0.0
 11
-4.0
 21
1050.0
 31
0.0
  0
ARC
  8
0
 62
0
 10
-27.0
 20
640.0
 30
0.0
 40
23.0
 50
180.0
 51
0.0
  0
ARC
  8
0
 62
0
 10
-27.0
 20
1050.0
 30
0.0
 40
23.0
 50
-0.0
 51
-180.0
  0
LINE
  8
0
 62
0
 10
-50.0
 20
640.0
 30
0.0
 11
-50.0
 21
1050.0
 31
0.0
  0
LINE
  8
0
 62
0
 10
-111.0
 20
120.0
 30
0.0
 11
-111.0
 21
530.0
 31
0.0
  0
ARC
  8
0
 62
0
 10
-134.0
 20
120.0
 30
0.0
 40
23.0
 50
180.0
 51
0.0
  0
ARC
  8
0
 62
0
 10
-134.0
 20
530.0
 30
0.0
 40
23.0
 50
-0.0
 51
180.0
  0
LINE
  8
0
 62
0
 10
-157.0
 20
120.0
 30
0.0
 11
-157.0
 21
530.0
 31
0.0
  0
LINE
  8
0
 62
0
 10
-157.0
 20
640.0
 30
0.0
 11
-157.0
 21
1050.0
 31
0.0
  0
ARC
  8
0
 62
0
 10
-134.0
 20
1050.0
 30
0.0
 40
23.0
 50
-0.0
 51
-180.0
  0
ARC
  8
0
 62
0
 10
-134.0
 20
640.0
 30
0.0
 40
23.0
 50
180.0
 51
0.0
  0
LINE
  8
0
 62
0
 10
-111.0
 20
640.0
 30
0.0
 11
-111.0
 21
1050.0
 31
0.0
  0
ARC
  8
0
 62
0
 10
-241.0
 20
530.0
 30
0.0
 40
23.0
 50
-0.0
 51
180.0
  0
LINE
  8
0
 62
0
 10
-218.0
 20
120.0
 30
0.0
 11
-218.0
 21
530.0
 31
0.0
  0
LINE
  8
0
 62
0
 10
-264.0
 20
120.0
 30
0.0
 11
-264.0
 21
530.0
 31
0.0
  0
ARC
  8
0
 62
0
 10
-241.0
 20
120.0
 30
0.0
 40
23.0
 50
180.0
 51
0.0
  0
ARC
  8
0
 62
0
 10
-241.0
 20
640.0
 30
0.0
 40
23.0
 50
180.0
 51
0.0
  0
LINE
  8
0
 62
0
 10
-264.0
 20
640.0
 30
0.0
 11
-264.0
 21
1050.0
 31
0.0
  0
LINE
  8
0
 62
0
 10
-218.0
 20
640.0
 30
0.0
 11
-218.0
 21
1050.0
 31
0.0
  0
ARC
  8
0
 62
0
 10
-241.0
 20
1050.0
 30
0.0
 40
23.0
 50
-0.0
 51
-180.0
  0
LINE
  8
0
 62
0
 10
-325.0
 20
120.0
 30
0.0
 11
-325.0
 21
530.0
 31
0.0
  0
ARC
  8
0
 62
0
 10
-348.0
 20
120.0
 30
0.0
 40
23.0
 50
180.0
 51
0.0
  0
ARC
  8
0
 62
0
 10
-348.0
 20
530.0
 30
0.0
 40
23.0
 50
-0.0
 51
180.0
  0
LINE
  8
0
 62
0
 10
-371.0
 20
120.0
 30
0.0
 11
-371.0
 21
530.0
 31
0.0
  0
ARC
  8
0
 62
0
 10
-348.0
 20
1050.0
 30
0.0
 40
23.0
 50
-0.0
 51
-180.0
  0
LINE
  8
0
 62
0
 10
-325.0
 20
640.0
 30
0.0
 11
-325.0
 21
1050.0
 31
0.0
  0
LINE
  8
0
 62
0
 10
-371.0
 20
640.0
 30
0.0
 11
-371.0
 21
1050.0
 31
0.0
  0
ARC
  8
0
 62
0
 10
-348.0
 20
640.0
 30
0.0
 40
23.0
 50
180.0
 51
0.0
  0
LINE
  8
0
 62
0
 10
-432.0
 20
120.0
 30
0.0
 11
-432.0
 21
530.0
 31
0.0
  0
ARC
  8
0
 62
0
 10
-455.0
 20
120.0
 30
0.0
 40
23.0
 50
180.0
 51
0.0
  0
ARC
  8
0
 62
0
 10
-455.0
 20
530.0
 30
0.0
 40
23.0
 50
-0.0
 51
180.0
  0
LINE
  8
0
 62
0
 10
-478.0
 20
120.0
 30
0.0
 11
-478.0
 21
530.0
 31
0.0
  0
ARC
  8
0
 62
0
 10
-455.0
 20
640.0
 30
0.0
 40
23.0
 50
180.0
 51
0.0
  0
LINE
  8
0
 62
0
 10
-432.0
 20
640.0
 30
0.0
 11
-432.0
 21
1050.0
 31
0.0
  0
ARC
  8
0
 62
0
 10
-455.0
 20
1050.0
 30
0.0
 40
23.0
 50
-0.0
 51
-180.0
  0
LINE
  8
0
 62
0
 10
-478.0
 20
640.0
 30
0.0
 11
-478.0
 21
1050.0
 31
0.0
  0
ENDBLK
  0
BLOCK
  8
0
  2
CUT035
 70
0
 10
0.0
 20
0.0
 30
0.0
  3
CUT035
  0
LINE
  8
0
 62
0
 10
-1060.0
 20
0.0
 30
0.0
 11
-1060.0
 21
1150.0
 31
0.0
  0
LINE
  8
0
 62
0
 10
-1060.0
 20
0.0
 30
0.0
 11
-560.0
 21
0.0
 31
0.0
  0
LINE
  8
0
 62
0
 10
-1060.0
 20
1150.0
 30
0.0
 11
-560.0
 21
1150.0
 31
0.0
  0
LINE
  8
0
 62
0
 10
-560.0
 20
0.0
 30
0.0
 11
-560.0
 21
1150.0
 31
0.0
  0
LINE
  8
0
 62
0
 10
-680.0
 20
120.0
 30
0.0
 11
-680.0
 21
530.0
 31
0.0
  0
ARC
  8
0
 62
0
 10
-657.0
 20
530.0
 30
0.0
 40
23.0
 50
-0.0
 51
180.0
  0
ARC
  8
0
 62
0
 10
-657.0
 20
120.0
 30
0.0
 40
23.0
 50
180.0
 51
0.0
  0
LINE
  8
0
 62
0
 10
-634.0
 20
120.0
 30
0.0
 11
-634.0
 21
530.0
 31
0.0
  0
LINE
  8
0
 62
0
 10
-634.0
 20
640.0
 30
0.0
 11
-634.0
 21
1050.0
 31
0.0
  0
ARC
  8
0
 62
0
 10
-657.0
 20
640.0
 30
0.0
 40
23.0
 50
180.0
 51
0.0
  0
ARC
  8
0
 62
0
 10
-657.0
 20
1050.0
 30
0.0
 40
23.0
 50
-0.0
 51
-180.0
  0
LINE
  8
0
 62
0
 10
-680.0
 20
640.0
 30
0.0
 11
-680.0
 21
1050.0
 31
0.0
  0
LINE
  8
0
 62
0
 10
-734.0
 20
120.0
 30
0.0
 11
-734.0
 21
530.0
 31
0.0
  0
ARC
  8
0
 62
0
 10
-757.0
 20
120.0
 30
0.0
 40
23.0
 50
180.0
 51
0.0
  0
ARC
  8
0
 62
0
 10
-757.0
 20
530.0
 30
0.0
 40
23.0
 50
-0.0
 51
180.0
  0
LINE
  8
0
 62
0
 10
-780.0
 20
120.0
 30
0.0
 11
-780.0
 21
530.0
 31
0.0
  0
LINE
  8
0
 62
0
 10
-780.0
 20
640.0
 30
0.0
 11
-780.0
 21
1050.0
 31
0.0
  0
ARC
  8
0
 62
0
 10
-757.0
 20
1050.0
 30
0.0
 40
23.0
 50
-0.0
 51
-180.0
  0
ARC
  8
0
 62
0
 10
-757.0
 20
640.0
 30
0.0
 40
23.0
 50
180.0
 51
0.0
  0
LINE
  8
0
 62
0
 10
-734.0
 20
640.0
 30
0.0
 11
-734.0
 21
1050.0
 31
0.0
  0
ARC
  8
0
 62
0
 10
-857.0
 20
530.0
 30
0.0
 40
23.0
 50
-0.0
 51
180.0
  0
LINE
  8
0
 62
0
 10
-834.0
 20
120.0
 30
0.0
 11
-834.0
 21
530.0
 31
0.0
  0
LINE
  8
0
 62
0
 10
-880.0
 20
120.0
 30
0.0
 11
-880.0
 21
530.0
 31
0.0
  0
ARC
  8
0
 62
0
 10
-857.0
 20
120.0
 30
0.0
 40
23.0
 50
180.0
 51
0.0
  0
ARC
  8
0
 62
0
 10
-857.0
 20
640.0
 30
0.0
 40
23.0
 50
180.0
 51
0.0
  0
LINE
  8
0
 62
0
 10
-880.0
 20
640.0
 30
0.0
 11
-880.0
 21
1050.0
 31
0.0
  0
LINE
  8
0
 62
0
 10
-834.0
 20
640.0
 30
0.0
 11
-834.0
 21
1050.0
 31
0.0
  0
ARC
  8
0
 62
0
 10
-857.0
 20
1050.0
 30
0.0
 40
23.0
 50
-0.0
 51
-180.0
  0
LINE
  8
0
 62
0
 10
-934.0
 20
120.0
 30
0.0
 11
-934.0
 21
530.0
 31
0.0
  0
ARC
  8
0
 62
0
 10
-957.0
 20
120.0
 30
0.0
 40
23.0
 50
180.0
 51
0.0
  0
ARC
  8
0
 62
0
 10
-957.0
 20
530.0
 30
0.0
 40
23.0
 50
-0.0
 51
180.0
  0
LINE
  8
0
 62
0
 10
-980.0
 20
120.0
 30
0.0
 11
-980.0
 21
530.0
 31
0.0
  0
ARC
  8
0
 62
0
 10
-957.0
 20
1050.0
 30
0.0
 40
23.0
 50
-0.0
 51
-180.0
  0
LINE
  8
0
 62
0
 10
-980.0
 20
640.0
 30
0.0
 11
-980.0
 21
1050.0
 31
0.0
  0
ARC
  8
0
 62
0
 10
-957.0
 20
640.0
 30
0.0
 40
23.0
 50
180.0
 51
0.0
  0
LINE
  8
0
 62
0
 10
-934.0
 20
640.0
 30
0.0
 11
-934.0
 21
1050.0
 31
0.0
  0
ENDBLK
  0
ENDSEC
  0
SECTION
  2
ENTITIES
  0
INSERT
  2
FUSION036
  8
0
 10
0.0
 20
0.0
 30
0.0
  0
INSERT
  2
BOX051
  8
0
 10
0.0
 20
0.0
 30
0.0
  0
INSERT
  2
CUT027
  8
0
 10
0.0
 20
0.0
 30
0.0
  0
INSERT
  2
CUT035
  8
0
 10
0.0
 20
0.0
 30
0.0
  0
ENDSEC
  0
EOF
